<svg width="500mm" height="500mm" viewBox="0 0 500 500" xmlns="http://www.w3.org/2000/svg"><defs><filter id="prefix__a" x="-.048" y="-.048" width="1.096" height="1.096" color-interpolation-filters="sRGB"><feGaussianBlur stdDeviation="9"/></filter></defs><path d="M302.14 25C149.23 25 25 149.229 25 302.14v136.661A36.195 36.195 0 0061.187 475a36.195 36.195 0 0036.2-36.199v-136.66c0-114.06 90.694-204.755 204.754-204.755H438.8A36.195 36.195 0 00475 61.187 36.195 36.195 0 00438.801 25z" opacity=".4" filter="url(#prefix__a)"/><path d="M302.14 25C149.23 25 25 149.229 25 302.14v136.661A36.195 36.195 0 0061.187 475a36.195 36.195 0 0036.2-36.199v-136.66c0-114.06 90.694-204.755 204.754-204.755H438.8A36.195 36.195 0 00475 61.187 36.195 36.195 0 00438.801 25z" fill="#fff"/></svg>